<svg xmlns="http://www.w3.org/2000/svg" width="103" height="16" fill="none" viewBox="0 0 103 16"><path fill="#212121" fill-opacity=".7" d="M0 10.624q2.032-1.632 3.184-2.672A13 13 0 0 0 5.12 5.76q.8-1.152.8-2.256 0-1.04-.512-1.632-.496-.608-1.616-.608-1.087 0-1.696.688-.592.672-.64 1.808H.048Q.112 1.968 1.136.992t2.64-.976q1.648 0 2.608.912.976.912.976 2.512 0 1.328-.8 2.592A11.4 11.4 0 0 1 4.768 8.24a47 47 0 0 1-2.576 2.208h5.504v1.216H0zm9.38-4.736q0-2.752.895-4.288.897-1.552 3.136-1.552 2.225 0 3.12 1.552.897 1.536.896 4.288 0 2.8-.896 4.352-.895 1.552-3.12 1.552-2.24 0-3.136-1.552T9.38 5.888m6.607 0q0-1.392-.192-2.352-.176-.975-.752-1.568-.56-.592-1.632-.592-1.088 0-1.664.592-.56.592-.752 1.568-.176.96-.176 2.352 0 1.44.176 2.416.192.975.752 1.568.576.592 1.664.592 1.072 0 1.632-.592.576-.592.752-1.568.192-.976.192-2.416m3.263 4.736q2.032-1.632 3.184-2.672A13 13 0 0 0 24.37 5.76q.8-1.152.8-2.256 0-1.04-.512-1.632-.496-.608-1.616-.608-1.087 0-1.696.688-.592.672-.64 1.808h-1.408q.064-1.792 1.088-2.768t2.64-.976q1.648 0 2.608.912.976.912.976 2.512 0 1.328-.8 2.592a11.4 11.4 0 0 1-1.792 2.208q-1.008.944-2.576 2.208h5.504v1.216H19.25zm9.347-7.488q.112-1.472 1.136-2.304T32.39 0q1.088 0 1.872.4.8.384 1.2 1.056.416.672.416 1.52 0 .992-.576 1.712-.56.72-1.472.928v.08q1.04.256 1.648 1.008.608.751.608 1.968a3.3 3.3 0 0 1-.416 1.648q-.415.72-1.248 1.136-.831.416-2 .416-1.695 0-2.784-.88-1.087-.896-1.216-2.528h1.408q.112.96.784 1.568.673.608 1.792.608 1.12 0 1.696-.576.592-.592.592-1.52 0-1.2-.8-1.728t-2.416-.528h-.368V5.072h.384q1.473-.015 2.224-.48.753-.48.752-1.472 0-.848-.56-1.36-.543-.512-1.568-.512-.992 0-1.6.512t-.72 1.376zM47.677.528q1.615 0 2.88.736a4.93 4.93 0 0 1 1.952 2.016q.704 1.28.704 2.928t-.704 2.944a5.07 5.07 0 0 1-1.952 2.016q-1.264.72-2.88.72-1.633 0-2.896-.72a5.2 5.2 0 0 1-1.968-2.016q-.704-1.296-.704-2.944t.704-2.928a5.04 5.04 0 0 1 1.968-2.016q1.264-.735 2.896-.736m0 .64q-1.488 0-2.592.64a4.2 4.2 0 0 0-1.696 1.76q-.592 1.136-.592 2.64 0 1.488.592 2.64a4.3 4.3 0 0 0 1.696 1.776q1.104.64 2.592.64 1.471 0 2.56-.64a4.3 4.3 0 0 0 1.696-1.776q.592-1.152.592-2.64 0-1.504-.592-2.64a4.2 4.2 0 0 0-1.696-1.76q-1.089-.64-2.56-.64m-.032 1.328q-.96 0-1.76.448a3.25 3.25 0 0 0-1.248 1.296q-.464.832-.464 1.952t.464 1.968q.463.832 1.248 1.296a3.54 3.54 0 0 0 1.76.448q1.2 0 2.08-.64a3.26 3.26 0 0 0 1.2-1.744H49.58q-.48 1.328-1.936 1.328-.96 0-1.568-.688-.609-.689-.608-1.952 0-1.28.608-1.968t1.568-.688q.703 0 1.216.352.512.336.72.976h1.344q-.305-1.136-1.184-1.76-.88-.624-2.096-.624m15.385 9.408q-1.104 0-1.984-.384-.864-.4-1.36-1.088a2.83 2.83 0 0 1-.512-1.616h1.552q.08.784.64 1.328.576.528 1.664.528 1.04 0 1.632-.512.608-.528.608-1.344 0-.64-.352-1.04a2.25 2.25 0 0 0-.88-.608 14 14 0 0 0-1.424-.448q-1.104-.288-1.776-.576a2.95 2.95 0 0 1-1.136-.896q-.465-.623-.464-1.664 0-.912.464-1.616.465-.704 1.296-1.088.848-.384 1.936-.384 1.569 0 2.56.784 1.007.784 1.136 2.08h-1.6q-.08-.64-.672-1.12-.592-.496-1.568-.496-.912 0-1.488.48-.576.465-.576 1.312 0 .608.336.992.353.384.848.592.513.192 1.424.448 1.104.304 1.776.608.672.288 1.152.912.48.608.48 1.664 0 .816-.432 1.536t-1.28 1.168-2 .448m7.31-7.264q.433-.751 1.28-1.248.865-.512 2-.512a4.06 4.06 0 0 1 2.113.56q.96.56 1.504 1.584.543 1.008.544 2.352 0 1.328-.544 2.368a4 4 0 0 1-1.504 1.616 3.97 3.97 0 0 1-2.112.576q-1.12 0-1.984-.496-.849-.512-1.296-1.264v5.776h-1.456V3.024h1.456zm5.953 2.736q0-.992-.4-1.728a2.75 2.75 0 0 0-1.088-1.12 2.95 2.95 0 0 0-1.488-.384 2.9 2.9 0 0 0-1.488.4q-.671.384-1.088 1.136-.4.735-.4 1.712 0 .992.4 1.744.416.736 1.088 1.136.687.384 1.488.384.816 0 1.488-.384a2.86 2.86 0 0 0 1.088-1.136q.4-.752.4-1.76m7.228 4.56a4.53 4.53 0 0 1-2.24-.56 4.07 4.07 0 0 1-1.568-1.584q-.56-1.04-.56-2.4 0-1.344.576-2.368a4 4 0 0 1 1.6-1.584q1.008-.56 2.256-.56t2.256.56q1.008.544 1.584 1.568.592 1.024.592 2.384t-.608 2.4a4.1 4.1 0 0 1-1.616 1.584q-1.023.56-2.272.56m0-1.28q.785 0 1.472-.368a2.75 2.75 0 0 0 1.104-1.104q.432-.735.432-1.792T86.113 5.6t-1.088-1.088a3 3 0 0 0-1.456-.368q-.8 0-1.472.368-.656.352-1.056 1.088t-.4 1.792q0 1.072.384 1.808.4.736 1.056 1.104.657.352 1.44.352m8.187-6.432v5.168q0 .64.272.912.272.255.944.256h1.072v1.232h-1.312q-1.216 0-1.824-.56t-.608-1.84V4.224h-1.136v-1.2h1.136V.816h1.456v2.208h2.288v1.2zm7.156 7.712q-1.008 0-1.808-.336-.8-.353-1.264-.96-.464-.623-.512-1.424h1.504q.063.656.608 1.072.56.416 1.456.416.832 0 1.312-.368t.48-.928q0-.576-.512-.848-.513-.288-1.584-.56-.975-.255-1.6-.512a3 3 0 0 1-1.056-.784q-.432-.528-.432-1.376 0-.672.4-1.232t1.136-.88q.735-.336 1.68-.336 1.455 0 2.352.736.895.736.96 2.016h-1.456a1.5 1.5 0 0 0-.56-1.104q-.496-.416-1.344-.416-.784 0-1.248.336-.465.336-.464.88 0 .432.272.72.288.271.704.448.431.16 1.184.368.944.255 1.536.512.591.24 1.008.736.432.496.448 1.296 0 .72-.4 1.296t-1.136.912q-.72.32-1.664.32"/></svg>